<svg width="182" height="24" viewBox="0 0 182 24" fill="none" xmlns="http://www.w3.org/2000/svg">
<path d="M1.48543 5.05785C2.80572 5.71041 4.40504 5.1691 5.0576 3.8488C5.71016 2.5285 5.16886 0.929187 3.84856 0.276627C2.52826 -0.375934 0.928943 0.165373 0.276383 1.48567C-0.376178 2.80597 0.165129 4.40529 1.48543 5.05785ZM162.667 2.66723L162.667 2.16723L162.667 2.66723ZM177.667 17.6672L177.167 17.6672L177.667 17.6672ZM177.314 23.0208C177.509 23.2161 177.825 23.216 178.021 23.0208L181.203 19.8388C181.398 19.6435 181.398 19.327 181.203 19.1317C181.007 18.9364 180.691 18.9364 180.495 19.1317L177.667 21.9601L174.839 19.1317C174.643 18.9364 174.327 18.9364 174.132 19.1317C173.936 19.327 173.936 19.6435 174.132 19.8388L177.314 23.0208ZM2.66699 2.66724V3.16724L162.667 3.16724L162.667 2.66723L162.667 2.16723L2.66699 2.16724V2.66724ZM177.667 17.6672L177.167 17.6672L177.167 22.6672L177.667 22.6672L178.167 22.6672L178.167 17.6672L177.667 17.6672ZM162.667 2.66723L162.667 3.16724C170.675 3.16724 177.167 9.65911 177.167 17.6672L177.667 17.6672L178.167 17.6672C178.167 9.10682 171.227 2.16724 162.667 2.16723L162.667 2.66723Z" fill="#87AFCE"/>
</svg>
