<svg width="459" height="372" viewBox="0 0 459 372" fill="none" xmlns="http://www.w3.org/2000/svg">
<path d="M8.13007e-05 2.66667C8.13007e-05 4.13943 1.19399 5.33334 2.66675 5.33334C4.13951 5.33334 5.33341 4.13943 5.33341 2.66667C5.33341 1.19391 4.13951 5.00679e-06 2.66675 5.00679e-06C1.19399 5.00679e-06 8.13007e-05 1.19391 8.13007e-05 2.66667ZM458.52 368.02C458.716 367.825 458.716 367.508 458.52 367.313L455.338 364.131C455.143 363.936 454.826 363.936 454.631 364.131C454.436 364.326 454.436 364.643 454.631 364.838L457.46 367.667L454.631 370.495C454.436 370.69 454.436 371.007 454.631 371.202C454.826 371.397 455.143 371.397 455.338 371.202L458.52 368.02ZM2.66675 2.66667H2.16675V352.667H2.66675H3.16675V2.66667H2.66675ZM17.6667 367.667V368.167H458.167V367.667V367.167H17.6667V367.667ZM2.66675 352.667H2.16675C2.16675 361.227 9.10633 368.167 17.6667 368.167V367.667V367.167C9.65862 367.167 3.16675 360.675 3.16675 352.667H2.66675Z" fill="#87AFCE"/>
</svg>
