<svg width="993" height="25" viewBox="0 0 993 25" fill="none" xmlns="http://www.w3.org/2000/svg">
<path d="M987.015 2.66663C987.015 4.13939 988.209 5.33329 989.682 5.33329C991.155 5.33329 992.349 4.13939 992.349 2.66663C992.349 1.19387 991.155 -4.06901e-05 989.682 -4.06901e-05C988.209 -4.06901e-05 987.015 1.19387 987.015 2.66663ZM4.03544 2.31307C3.84018 2.11781 3.52359 2.11781 3.32833 2.31307L0.146351 5.49505C-0.0489113 5.69032 -0.0489113 6.0069 0.146351 6.20216C0.341613 6.39742 0.658195 6.39742 0.853458 6.20216L3.68188 3.37373L6.51031 6.20216C6.70557 6.39742 7.02216 6.39742 7.21742 6.20216C7.41268 6.0069 7.41268 5.69032 7.21742 5.49505L4.03544 2.31307ZM989.682 8.66663H990.182V2.66663H989.682H989.182V8.66663H989.682ZM3.68188 2.66663H3.18188V8.66663H3.68188H4.18188V2.66663H3.68188ZM18.6819 23.6666V24.1666H974.682V23.6666V23.1666H18.6819V23.6666ZM3.68188 8.66663H3.18188C3.18188 17.227 10.1215 24.1666 18.6819 24.1666V23.6666V23.1666C10.6738 23.1666 4.18188 16.6748 4.18188 8.66663H3.68188ZM989.682 8.66663H989.182C989.182 16.6748 982.69 23.1666 974.682 23.1666V23.6666V24.1666C983.242 24.1666 990.182 17.227 990.182 8.66663H989.682Z" fill="#87AFCE"/>
</svg>
