<svg width="94" height="47" viewBox="0 0 94 47" fill="none" xmlns="http://www.w3.org/2000/svg">
<path d="M1.48567 5.05785C2.80597 5.71041 4.40529 5.1691 5.05785 3.8488C5.71041 2.5285 5.1691 0.929187 3.8488 0.276627C2.5285 -0.375934 0.929187 0.165373 0.276627 1.48567C-0.375934 2.80597 0.165373 4.40529 1.48567 5.05785ZM74.6672 2.66724L74.6672 3.16724L74.6672 2.66724ZM89.6672 17.6672L90.1672 17.6672L89.6672 17.6672ZM89.3137 46.0208C89.5089 46.216 89.8255 46.2161 90.0208 46.0208L93.2028 42.8388C93.398 42.6435 93.398 42.327 93.2028 42.1317C93.0075 41.9364 92.6909 41.9364 92.4957 42.1317L89.6672 44.9601L86.8388 42.1317C86.6435 41.9364 86.327 41.9364 86.1317 42.1317C85.9364 42.327 85.9364 42.6435 86.1317 42.8388L89.3137 46.0208ZM2.66724 2.66724L2.66724 3.16724L74.6672 3.16724L74.6672 2.66724L74.6672 2.16724L2.66724 2.16724L2.66724 2.66724ZM89.6672 17.6672L89.1672 17.6672L89.1672 45.6672L89.6672 45.6672L90.1672 45.6672L90.1672 17.6672L89.6672 17.6672ZM74.6672 2.66724L74.6672 3.16724C82.6754 3.16724 89.1672 9.65911 89.1672 17.6672L89.6672 17.6672L90.1672 17.6672C90.1672 9.10682 83.2276 2.16723 74.6672 2.16724L74.6672 2.66724Z" fill="#87AFCE"/>
</svg>
