<svg width="8" height="1394" viewBox="0 0 8 1394" fill="none" xmlns="http://www.w3.org/2000/svg">
<path d="M3.32845 1393.02C3.52372 1393.22 3.8403 1393.22 4.03556 1393.02L7.21754 1389.84C7.4128 1389.64 7.4128 1389.33 7.21754 1389.13C7.02228 1388.94 6.7057 1388.94 6.51043 1389.13L3.68201 1391.96L0.85358 1389.13C0.658318 1388.94 0.341735 1388.94 0.146473 1389.13C-0.0487892 1389.33 -0.0487892 1389.64 0.146473 1389.84L3.32845 1393.02ZM1.01534 2.66663C1.01534 4.13939 2.20925 5.33329 3.68201 5.33329C5.15477 5.33329 6.34867 4.13939 6.34867 2.66663C6.34867 1.19387 5.15477 -4.06901e-05 3.68201 -4.06901e-05C2.20925 -4.06901e-05 1.01534 1.19387 1.01534 2.66663ZM3.68201 1392.67H4.18201V2.66663H3.68201H3.18201V1392.67H3.68201Z" fill="#87AFCE"/>
</svg>
