<svg width="1008" height="432" viewBox="0 0 1008 432" fill="none" xmlns="http://www.w3.org/2000/svg">
<path d="M0.455209 1.17729C-0.367525 2.3988 -0.0442475 4.056 1.17728 4.87874C2.3988 5.70148 4.056 5.37821 4.87874 4.15669C5.70147 2.93518 5.37819 1.27797 4.15667 0.455234C2.93515 -0.367506 1.27794 -0.0442264 0.455209 1.17729ZM669.167 2.66711L669.167 3.1671L669.167 2.66711ZM684.167 17.6671L684.667 17.6671L684.667 17.6671L684.167 17.6671ZM684.167 332.167L683.667 332.167L684.167 332.167ZM434.669 427.667L434.669 427.167L434.669 427.667ZM1007.02 428.021C1007.22 427.826 1007.22 427.509 1007.02 427.314L1003.84 424.132C1003.64 423.937 1003.33 423.937 1003.13 424.132C1002.94 424.327 1002.94 424.644 1003.13 424.839L1005.96 427.668L1003.13 430.496C1002.94 430.691 1002.94 431.008 1003.13 431.203C1003.33 431.398 1003.64 431.398 1003.84 431.203L1007.02 428.021ZM669.167 347.167L669.167 347.667L669.167 347.167ZM434.669 347.167L434.669 346.667L434.669 347.167ZM419.669 362.167L420.169 362.167L419.669 362.167ZM419.669 412.667L419.169 412.667L419.669 412.667ZM2.66697 2.66699L2.66697 3.16699L669.167 3.1671L669.167 2.66711L669.167 2.16712L2.66697 2.16699L2.66697 2.66699ZM684.167 17.6671L683.667 17.6671L683.667 332.167L684.167 332.167L684.667 332.167L684.667 17.6671L684.167 17.6671ZM434.669 427.667L434.669 428.167L1006.67 428.168L1006.67 427.668L1006.67 427.168L434.669 427.167L434.669 427.667ZM669.167 347.167L669.167 346.667L434.669 346.667L434.669 347.167L434.669 347.667L669.167 347.667L669.167 347.167ZM419.669 362.167L419.169 362.167L419.169 412.667L419.669 412.667L420.169 412.667L420.169 362.167L419.669 362.167ZM434.669 347.167L434.669 346.667C426.108 346.667 419.169 353.607 419.169 362.167L419.669 362.167L420.169 362.167C420.169 354.159 426.661 347.667 434.669 347.667L434.669 347.167ZM434.669 427.667L434.669 427.167C426.66 427.167 420.169 420.676 420.169 412.667L419.669 412.667L419.169 412.667C419.169 421.228 426.108 428.167 434.669 428.167L434.669 427.667ZM684.167 332.167L683.667 332.167C683.667 340.175 677.175 346.667 669.167 346.667L669.167 347.167L669.167 347.667C677.727 347.667 684.667 340.728 684.667 332.167L684.167 332.167ZM669.167 2.66711L669.167 3.1671C677.175 3.1671 683.667 9.65897 683.667 17.6671L684.167 17.6671L684.667 17.6671C684.667 9.10668 677.727 2.16709 669.167 2.16712L669.167 2.66711Z" fill="#87AFCE"/>
</svg>
