<svg width="18" height="18" viewBox="0 0 18 18" fill="none" xmlns="http://www.w3.org/2000/svg">
<path d="M3 3.75H7.5M7.5 3.75C7.5 4.57843 8.17155 5.25 9 5.25C9.82845 5.25 10.5 4.57843 10.5 3.75M7.5 3.75C7.5 2.92157 8.17155 2.25 9 2.25C9.82845 2.25 10.5 2.92157 10.5 3.75M10.5 3.75H15M3 9H12M12 9C12 9.82845 12.6716 10.5 13.5 10.5C14.3284 10.5 15 9.82845 15 9C15 8.17155 14.3284 7.5 13.5 7.5C12.6716 7.5 12 8.17155 12 9ZM6 14.25H15M6 14.25C6 13.4216 5.32843 12.75 4.5 12.75C3.67157 12.75 3 13.4216 3 14.25C3 15.0784 3.67157 15.75 4.5 15.75C5.32843 15.75 6 15.0784 6 14.25Z" stroke="white" stroke-linecap="round"/>
</svg>
