<svg width="28" height="28" viewBox="0 0 28 28" fill="none" xmlns="http://www.w3.org/2000/svg">
<path d="M13.8 0C21.4218 0 27.6 6.1782 27.6 13.8C27.6 21.4218 21.4218 27.6 13.8 27.6C6.1782 27.6 0 21.4218 0 13.8C0 6.1782 6.1782 0 13.8 0ZM18.5604 19.425C18.8142 18.6462 20.0034 10.8846 20.1504 9.3552C20.1948 8.892 20.0484 8.5842 19.7616 8.4468C19.4148 8.28 18.9012 8.3634 18.3054 8.5782C17.4882 8.8728 7.041 13.3086 6.4374 13.5654C5.865 13.8084 5.3238 14.0736 5.3238 14.4576C5.3238 14.7276 5.484 14.8794 5.9256 15.0372C6.3852 15.201 7.5426 15.552 8.226 15.7404C8.8842 15.9222 9.6336 15.7644 10.0536 15.5034C10.4988 15.2268 15.6366 11.7888 16.0056 11.4876C16.374 11.1864 16.668 11.5722 16.3668 11.874C16.0656 12.1752 12.5388 15.5982 12.0738 16.0722C11.5092 16.6476 11.91 17.244 12.2886 17.4828C12.7212 17.7552 15.8322 19.842 16.3008 20.1768C16.7694 20.5116 17.2446 20.6634 17.6796 20.6634C18.1146 20.6634 18.3438 20.0904 18.5604 19.425Z" fill="#F7F7F7"/>
</svg>
