<svg width="28" height="28" viewBox="0 0 28 28" fill="none" xmlns="http://www.w3.org/2000/svg">
<path d="M13.8001 0C6.19089 0 8.90541e-05 6.1908 8.90541e-05 13.8C8.90541e-05 16.176 0.613889 18.5124 1.77789 20.574L0.022289 26.838C-0.035311 27.0438 0.0204891 27.2646 0.169289 27.4176C0.283889 27.5358 0.439889 27.6 0.600089 27.6C0.648089 27.6 0.696689 27.594 0.744089 27.5826L7.28169 25.9632C9.27789 27.0348 11.5261 27.6 13.8001 27.6C21.4093 27.6 27.6001 21.4092 27.6001 13.8C27.6001 6.1908 21.4093 0 13.8001 0ZM20.7421 18.6696C20.4469 19.4868 19.0309 20.2326 18.3505 20.3328C17.7397 20.4222 16.9669 20.4606 16.1185 20.1942C15.6043 20.0322 14.9443 19.8174 14.0989 19.4568C10.5451 17.9412 8.22429 14.4078 8.04669 14.1744C7.86969 13.941 6.60009 12.2778 6.60009 10.5564C6.60009 8.835 7.51509 7.9884 7.84029 7.638C8.16549 7.2876 8.54889 7.2 8.78529 7.2C9.02169 7.2 9.25749 7.203 9.46449 7.2126C9.68229 7.2234 9.97449 7.1304 10.2619 7.8132C10.5571 8.514 11.2657 10.2354 11.3533 10.4112C11.4421 10.5864 11.5009 10.791 11.3833 11.0244C11.2657 11.2578 11.2069 11.4036 11.0293 11.6082C10.8517 11.8128 10.6573 12.0642 10.4977 12.2214C10.3201 12.396 10.1359 12.585 10.3423 12.9354C10.5487 13.2858 11.2597 14.4312 12.3133 15.3588C13.6663 16.5504 14.8081 16.92 15.1621 17.0952C15.5161 17.2704 15.7231 17.241 15.9295 17.0076C16.1359 16.7736 16.8151 15.9858 17.0509 15.636C17.2867 15.2862 17.5231 15.3438 17.8483 15.4608C18.1735 15.5772 19.9153 16.4232 20.2693 16.5984C20.6233 16.7736 20.8597 16.8612 20.9485 17.007C21.0373 17.1522 21.0373 17.853 20.7421 18.6696Z" fill="#F7F7F7"/>
</svg>
