<svg width="25" height="27" viewBox="0 0 25 27" fill="none" xmlns="http://www.w3.org/2000/svg">
<path d="M10.6628 0C16.0848 0 20.5605 4.0465 21.2375 9.2833L24.2364 14.0002C24.4337 14.3108 24.3937 14.7733 23.9366 14.9705L21.3255 16.0874V19.9927C21.3255 21.4655 20.1326 22.6584 18.6598 22.6584H15.9955L15.9945 25.5542C15.9943 26.1633 15.5005 26.6569 14.8915 26.6569H5.1016C4.4924 26.6569 3.9985 26.1631 3.9985 25.5539V21.7334C3.9985 20.1606 3.4174 18.6718 2.3405 17.3283C0.8757 15.5023 0 13.1845 0 10.6628C0 4.7743 4.7742 0 10.6628 0ZM9.9563 7.6812C9.0447 6.7695 7.5679 6.7695 6.6576 7.6812C5.7459 8.5915 5.7459 10.0683 6.6576 10.9787L9.8827 14.2048C10.3134 14.6358 11.0121 14.6358 11.4429 14.2048L14.668 10.9787C15.5796 10.0683 15.5796 8.5915 14.668 7.6812C13.7576 6.7695 12.2808 6.7695 11.3692 7.6812L10.6628 8.3876L9.9563 7.6812Z" fill="#476D8B"/>
</svg>
