<svg width="284" height="68" viewBox="0 0 284 68" fill="none" xmlns="http://www.w3.org/2000/svg">
<path d="M164.144 15.9092L164.17 15.9678L171.186 31.6045L177.23 15.9727L177.254 15.9092H180.118L180.065 16.0449L171.967 36.7061C171.23 38.5869 170.173 40.0664 168.794 41.1387L168.793 41.1377C167.438 42.2367 165.913 42.7247 164.223 42.5967L164.13 42.5898V40.0391L164.241 40.0518C165.352 40.1752 166.326 39.9158 167.168 39.2764C168.013 38.6349 168.733 37.6058 169.321 36.1777L169.322 36.1768L169.797 35.043L161.338 16.0498L161.276 15.9092H164.144Z" fill="white" stroke="white" stroke-width="0.2"/>
<path d="M151.638 15.4531C153.521 15.4531 155.216 15.9113 156.721 16.8291H156.722C158.227 17.722 159.326 18.9357 160.016 20.4688L160.053 20.5518L159.975 20.5967L157.931 21.7695L157.836 21.8252L157.791 21.7236C157.295 20.609 156.49 19.7289 155.373 19.083L155.37 19.0811C154.277 18.4106 153.034 18.0742 151.638 18.0742C149.571 18.0742 147.83 18.7957 146.412 20.2393V20.2402C144.993 21.6588 144.284 23.3987 144.284 25.4668C144.284 27.5345 144.992 29.2876 146.411 30.7314C147.829 32.15 149.57 32.8594 151.638 32.8594C153.035 32.8594 154.279 32.5356 155.372 31.8896C156.466 31.2176 157.324 30.3218 157.946 29.2021L157.996 29.1133L158.084 29.165L160.165 30.376L160.247 30.4238L160.204 30.5078C159.413 32.0388 158.251 33.2513 156.721 34.1436C155.192 35.0358 153.496 35.4814 151.638 35.4814C148.763 35.4814 146.366 34.5262 144.454 32.6143L144.453 32.6133C142.542 30.6765 141.586 28.292 141.586 25.4668C141.587 22.6418 142.541 20.27 144.453 18.3584L144.817 18.0068C146.666 16.3038 148.942 15.4531 151.638 15.4531Z" fill="white" stroke="white" stroke-width="0.2"/>
<path d="M127.392 15.4531C130.664 15.4531 133.182 16.7619 134.936 19.377V15.9072H137.633V35.0273H134.936V31.5566C133.182 34.1719 130.664 35.4814 127.392 35.4814C124.666 35.4814 122.333 34.5119 120.397 32.5762L120.396 32.5752C118.485 30.6387 117.53 28.267 117.53 25.4668C117.53 22.6666 118.485 20.2949 120.396 18.3584H120.397C122.333 16.4225 124.666 15.4532 127.392 15.4531ZM127.581 18.0742C125.514 18.0742 123.774 18.7957 122.355 20.2393V20.2402C120.936 21.6588 120.227 23.3987 120.227 25.4668C120.227 27.5345 120.935 29.2876 122.354 30.7314C123.772 32.15 125.513 32.8594 127.581 32.8594C129.65 32.8594 131.389 32.15 132.808 30.7314C134.227 29.2875 134.936 27.5347 134.936 25.4668C134.936 23.3987 134.226 21.6588 132.808 20.2402V20.2393C131.389 18.7957 129.649 18.0742 127.581 18.0742Z" fill="white" stroke="white" stroke-width="0.2"/>
<path d="M110.398 15.9062H115.847V18.5283H110.398V29.8945C110.398 30.9186 110.599 31.6318 110.977 32.0586L111.129 32.2012C111.504 32.5138 112.031 32.6853 112.722 32.707C113.527 32.707 114.535 32.6832 115.744 32.6328L115.847 32.6279V35.0127L115.762 35.0254C113.106 35.4302 111.085 35.2447 109.718 34.4453H109.717C108.363 33.638 107.701 32.1074 107.701 29.8945V18.5283H103.728V15.9062H107.701V11.3916L107.772 11.3701L110.269 10.6133L110.398 10.5742V15.9062Z" fill="white" stroke="white" stroke-width="0.2"/>
<path d="M92.6066 7.88477C94.6931 7.88477 96.5051 8.43168 98.0373 9.5293C99.5657 10.5992 100.701 11.9762 101.44 13.6582L101.477 13.7412L101.397 13.7852L99.1642 15.0342L99.0666 15.0889L99.0236 14.9854C98.4241 13.5366 97.5898 12.4568 96.5246 11.7383C95.4594 11.0199 94.1547 10.6572 92.6066 10.6572C90.9836 10.6573 89.6834 11.0571 88.6965 11.8467C87.714 12.6327 87.2199 13.7253 87.2199 15.1367C87.22 16.4224 87.6639 17.3732 88.5412 18.0068C89.3244 18.5724 90.5618 19.1523 92.2599 19.7441L93.0168 19.998L93.0178 19.999C93.9762 20.3269 94.6585 20.5668 95.0637 20.7188H95.0627C95.4957 20.8465 96.1018 21.0736 96.8791 21.3994H96.8801C97.686 21.7016 98.2857 21.9824 98.674 22.2402H98.675C99.0578 22.4699 99.5144 22.7999 100.044 23.2285C100.604 23.6358 101.007 24.0613 101.244 24.5059L101.339 24.665C101.556 25.0475 101.741 25.5061 101.897 26.0391C102.102 26.6308 102.205 27.2729 102.205 27.9639C102.205 30.237 101.373 32.0698 99.7092 33.4521L99.7082 33.4531C98.0464 34.808 95.8656 35.4814 93.175 35.4814C90.7371 35.4814 88.6356 34.9092 86.8762 33.7617L86.8752 33.7607C85.1411 32.5877 83.9293 30.9806 83.2414 28.9424L83.215 28.8652L83.2853 28.8242L85.5558 27.499L85.6662 27.4346L85.7023 27.5576C86.1759 29.1776 87.0467 30.4449 88.3137 31.3643H88.3127C89.5781 32.2575 91.209 32.7079 93.2121 32.708C95.1666 32.708 96.6687 32.2813 97.7297 31.4424C98.8149 30.5788 99.3566 29.4476 99.3566 28.04C99.3566 26.6804 98.8636 25.6665 97.8849 24.9814C96.8885 24.2839 95.235 23.5559 92.9162 22.7998C90.1681 21.8922 88.3404 21.1571 87.4455 20.5947V20.5938C85.3995 19.3654 84.3713 17.581 84.3713 15.25C84.3713 12.9788 85.1636 11.1828 86.7531 9.875C88.3373 8.54639 90.2909 7.88485 92.6066 7.88477Z" fill="white" stroke="white" stroke-width="0.2"/>
<path d="M273.605 14.8994C276.406 14.8994 278.777 15.8676 280.713 17.8037L281.07 18.167C282.795 20.013 283.657 22.2637 283.657 24.9131C283.657 27.7393 282.676 30.124 280.713 32.0605C278.777 33.9716 276.405 34.9277 273.605 34.9277C270.805 34.9277 268.42 33.9722 266.459 32.0615L266.458 32.0605V32.0596C264.521 30.123 263.553 27.7386 263.553 24.9131C263.553 22.0874 264.521 19.7153 266.459 17.8037C268.42 15.8677 270.804 14.8994 273.605 14.8994ZM273.605 17.5205C271.537 17.5205 269.797 18.2419 268.378 19.6855V19.6865C266.96 21.1051 266.251 22.845 266.251 24.9131C266.251 26.9808 266.959 28.7339 268.378 30.1777C269.796 31.5963 271.537 32.3057 273.605 32.3057C275.673 32.3056 277.413 31.5963 278.832 30.1777C280.25 28.7338 280.96 26.981 280.96 24.9131C280.959 22.845 280.25 21.1051 278.832 19.6865V19.6855C277.413 18.242 275.673 17.5205 273.605 17.5205Z" fill="white" stroke="white" stroke-width="0.2"/>
<path d="M256.422 15.3525H261.871V17.9746H256.422V29.3408C256.422 30.3649 256.623 31.0781 257.001 31.5049L257.152 31.6475C257.528 31.9601 258.055 32.1315 258.746 32.1533C259.551 32.1533 260.559 32.1295 261.768 32.0791L261.871 32.0742V34.459L261.786 34.4717C259.13 34.8764 257.109 34.691 255.742 33.8916H255.741C254.387 33.0843 253.725 31.5536 253.725 29.3408V17.9746H249.752V15.3525H253.725V10.8379L253.796 10.8164L256.293 10.0596L256.422 10.0205V15.3525Z" fill="white" stroke="white" stroke-width="0.2"/>
<path d="M241.24 14.8994C242.795 14.8994 244.163 15.2557 245.341 15.9727H245.34C246.517 16.6637 247.389 17.6119 247.953 18.8164L247.992 18.8994L247.913 18.9453L245.831 20.1562L245.733 20.2139L245.689 20.1084C245.33 19.2437 244.783 18.5984 244.047 18.1689C243.31 17.7388 242.376 17.5205 241.24 17.5205C240.173 17.5205 239.259 17.781 238.496 18.2979L238.494 18.2998C237.742 18.7853 237.367 19.4844 237.367 20.4102C237.367 21.2321 237.727 21.8828 238.458 22.3701C239.204 22.8671 240.113 23.255 241.19 23.5303C242.276 23.8081 243.362 24.1231 244.447 24.4766C245.548 24.8093 246.484 25.3863 247.253 26.2061L247.395 26.3594C248.078 27.1432 248.416 28.1531 248.416 29.3789C248.416 31.0244 247.759 32.3649 246.448 33.3926C245.165 34.4186 243.502 34.9277 241.468 34.9277C239.636 34.9277 238.065 34.5202 236.76 33.7012H236.759C235.481 32.8836 234.584 31.8204 234.071 30.5127L234.04 30.4326L234.113 30.3896L236.233 29.1406L236.337 29.0801L236.377 29.1934C236.722 30.1548 237.338 30.9188 238.227 31.4873L238.577 31.6787C239.414 32.0959 240.377 32.3057 241.468 32.3057C242.538 32.3056 243.45 32.1239 244.206 31.7646L244.521 31.5996C245.319 31.1146 245.719 30.3797 245.719 29.3789C245.719 28.557 245.359 27.9053 244.628 27.418C243.883 26.9211 242.973 26.5341 241.897 26.2588C240.81 25.9809 239.724 25.678 238.638 25.3496L238.636 25.3486C237.537 24.9906 236.602 24.4143 235.833 23.6201L235.832 23.6191C235.055 22.7903 234.67 21.7177 234.67 20.4102C234.67 18.8411 235.289 17.5271 236.521 16.4746L236.522 16.4736C237.779 15.4219 239.354 14.8994 241.24 14.8994Z" fill="white" stroke="white" stroke-width="0.2"/>
<path d="M230.099 15.3525V34.4727H227.402V15.3525H230.099ZM228.751 7.70898C229.282 7.709 229.736 7.89545 230.108 8.26758C230.48 8.63971 230.667 9.09427 230.667 9.625C230.667 10.1557 230.48 10.6103 230.108 10.9824C229.736 11.3546 229.282 11.541 228.751 11.541C228.22 11.541 227.766 11.3545 227.393 10.9824C227.021 10.6103 226.835 10.1557 226.835 9.625C226.835 9.09424 227.021 8.63972 227.393 8.26758C227.766 7.89543 228.22 7.70898 228.751 7.70898Z" fill="white" stroke="white" stroke-width="0.2"/>
<path d="M224.179 15.0508V17.6719H224.079C222.385 17.6719 220.984 18.1695 219.869 19.1602C218.763 20.1432 218.201 21.7001 218.201 23.8535V34.4736H215.503V15.3535H218.201V18.1973C218.767 17.2077 219.505 16.4491 220.415 15.9248C221.43 15.3404 222.653 15.0508 224.079 15.0508H224.179Z" fill="white" stroke="white" stroke-width="0.2"/>
<path d="M202.47 7.78516L202.494 7.84863L212.673 34.3369L212.726 34.4736H209.711L209.687 34.4082L207.251 27.9648H194.826L192.391 34.4082L192.366 34.4736H189.352L189.404 34.3369L199.583 7.84863L199.608 7.78516H202.47ZM195.848 25.2676H206.23L201.038 11.46L195.848 25.2676Z" fill="white" stroke="white" stroke-width="0.2"/>
<mask id="path-12-outside-1_141_80" maskUnits="userSpaceOnUse" x="-0.5" y="-0.5" width="70" height="69" fill="black">
<rect fill="white" x="-0.5" y="-0.5" width="70" height="69"/>
<path d="M61.5019 39.1138L61.5413 39.6384C61.8034 43.1428 61.4024 46.5685 60.5457 49.893C59.6862 53.2286 58.2951 56.3044 56.4576 58.9276C54.62 61.5507 52.3759 63.6659 49.8658 65.1407C47.3556 66.6155 44.6321 67.4185 41.8666 67.4997C41.5579 67.5086 41.3008 67.2618 41.2918 66.9485C41.2828 66.635 41.526 66.3731 41.8349 66.364C44.4054 66.2885 46.948 65.5429 49.3052 64.158C51.6641 62.7721 53.7917 60.7729 55.5451 58.2699C57.2988 55.7665 58.6361 52.818 59.4639 49.6057C60.2511 46.5506 60.6354 43.4278 60.4594 40.2495H40.8415C40.5325 40.2495 40.282 39.9952 40.282 39.6816C40.282 39.368 40.5325 39.1138 40.8415 39.1138H61.5019ZM36.9249 62.3957V3.92361C30.2226 4.1841 23.8523 6.72068 19.1058 11.0129C14.2281 15.4239 11.4139 21.3512 11.2005 27.5627C11.1897 27.876 10.9301 28.1215 10.6213 28.1105C10.3127 28.0994 10.0707 27.836 10.0815 27.5227C10.3063 20.9821 13.2704 14.7696 18.3616 10.1655C23.453 5.56136 30.3112 2.91105 37.4735 2.77127L38.044 2.76018V62.3957C38.044 62.7093 37.7934 62.9635 37.4845 62.9635C37.1754 62.9635 36.9249 62.7093 36.9249 62.3957ZM19.0206 36.8424C19.3295 36.8424 19.5801 37.0966 19.5801 37.4102C19.5801 37.7238 19.3295 37.978 19.0206 37.9781C16.8073 37.9781 14.6439 38.6444 12.8036 39.8923C10.9635 41.1402 9.52858 42.9134 8.68161 44.9886C7.83465 47.0638 7.61383 49.348 8.0456 51.5511C8.47743 53.754 9.54272 55.7778 11.1076 57.366C12.6725 58.9542 14.6666 60.0354 16.8372 60.4736C19.0078 60.9119 21.2585 60.6877 23.3032 59.8282C25.3479 58.9686 27.0951 57.5122 28.3246 55.6447C29.5542 53.777 30.2108 51.5813 30.2108 49.3351C30.2108 49.0215 30.4613 48.7672 30.7703 48.7672C31.0792 48.7673 31.3298 49.0215 31.3298 49.3351C31.3298 51.8059 30.6082 54.2214 29.2557 56.2757C27.9031 58.3302 25.9797 59.9318 23.7305 60.8773C21.4814 61.8227 19.0062 62.0703 16.6186 61.5883C14.231 61.1062 12.0378 59.916 10.3164 58.169C8.59495 56.4218 7.4223 54.1951 6.94734 51.7718C6.47255 49.3486 6.71624 46.8364 7.64783 44.5538C8.5795 42.2712 10.1577 40.3201 12.1818 38.9474C14.206 37.5748 16.5861 36.8424 19.0206 36.8424ZM8.91547 23.184C9.20947 23.0878 9.52428 23.2517 9.61923 23.55C9.71411 23.8484 9.55269 24.169 9.25861 24.2653C7.3085 24.904 5.57224 26.0814 4.24486 27.6658C2.91751 29.2502 2.05101 31.1784 1.74345 33.2345C1.43593 35.2908 1.69956 37.3939 2.50403 39.3068C3.30851 41.2196 4.62245 42.8676 6.29822 44.0647C6.55061 44.2453 6.6114 44.5992 6.43373 44.8555C6.25586 45.112 5.90616 45.1735 5.65347 44.993C3.80776 43.6744 2.36069 41.8595 1.47462 39.7526C0.588543 37.6456 0.298864 35.3297 0.637537 33.0648C0.976262 30.7998 1.93025 28.6747 3.39248 26.9294C4.85467 25.1842 6.76737 23.8874 8.91547 23.184ZM55.3814 23.5023C58.063 22.8605 60.8856 23.3 63.2539 24.7289C65.6222 26.1581 67.3521 28.465 68.0775 31.1627C68.8028 33.8606 68.467 36.7394 67.142 39.1914C66.9933 39.466 66.6533 39.5662 66.3825 39.4154C66.1119 39.2645 66.0133 38.9195 66.1618 38.6446C67.347 36.451 67.6466 33.8758 66.9978 31.4622C66.3488 29.0484 64.8014 26.9848 62.6823 25.706C60.5633 24.4273 58.0377 24.0327 55.6382 24.6069C53.2388 25.1812 51.153 26.679 49.8201 28.7838C49.653 29.0476 49.3064 29.1241 49.0464 28.9546C48.7866 28.785 48.7111 28.4331 48.8781 28.1693C50.3678 25.817 52.6997 24.1441 55.3814 23.5023ZM48.146 16.0903C48.4312 15.9703 48.7585 16.1081 48.877 16.3975C48.9953 16.6869 48.8604 17.019 48.5754 17.1395C47.3745 17.6462 46.288 18.3971 45.3845 19.3465C44.481 20.2959 43.7796 21.4238 43.3223 22.6594C42.8651 23.895 42.6624 25.2129 42.7268 26.5312C42.7912 27.8494 43.1208 29.1406 43.6961 30.3243C44.2714 31.5079 45.0804 32.559 46.0718 33.4131C47.0633 34.267 48.2164 34.9059 49.4606 35.2896C50.7049 35.6734 52.014 35.7944 53.3061 35.6446C54.5983 35.4947 55.8466 35.0767 56.9736 34.4179C57.2413 34.2616 57.5833 34.3558 57.7374 34.6275C57.8914 34.8992 57.7997 35.2463 57.532 35.4028C56.2724 36.139 54.877 36.605 53.4329 36.7725C51.989 36.9399 50.5266 36.8053 49.136 36.3765C47.7453 35.9477 46.4555 35.2338 45.3473 34.2793C44.2392 33.3248 43.3359 32.1495 42.6929 30.8267C42.0498 29.5037 41.6808 28.0601 41.6088 26.5867C41.537 25.1134 41.7634 23.641 42.2744 22.2601C42.7854 20.8791 43.5703 19.6191 44.5802 18.558C45.59 17.4969 46.8038 16.6566 48.146 16.0903ZM63.6724 13.1168C63.7943 12.8288 64.1229 12.696 64.4068 12.8196C65.5102 13.3 66.48 14.0493 67.2284 15.0023C67.9767 15.9552 68.4807 17.0819 68.696 18.2807C68.9112 19.4797 68.8301 20.7145 68.461 21.8742C68.0919 23.0337 67.4459 24.0829 66.5803 24.9275C66.3576 25.1446 66.0033 25.1378 65.7892 24.9119C65.575 24.6859 65.5828 24.3263 65.8055 24.109C66.538 23.3943 67.0843 22.5061 67.3967 21.5248C67.7089 20.5436 67.7766 19.4992 67.5945 18.4848C67.4123 17.4704 66.9862 16.5174 66.353 15.711C65.7198 14.9045 64.8991 14.2698 63.9653 13.8632C63.6814 13.7395 63.5506 13.405 63.6724 13.1168ZM48.0651 0.660681C49.6843 0.388084 51.3423 0.463017 52.9313 0.88028C54.5205 1.29765 56.0068 2.0484 57.2927 3.08403C58.5783 4.11956 59.6359 5.41697 60.3973 6.89263C61.1588 8.36852 61.6068 9.99032 61.713 11.6528C61.8193 13.3152 61.5818 14.9818 61.0147 16.545C60.4475 18.1083 59.5636 19.5341 58.4204 20.7296C58.2053 20.9546 57.851 20.96 57.6292 20.7418C57.4075 20.5234 57.402 20.1639 57.6172 19.9388C58.6516 18.8571 59.4514 17.5669 59.9646 16.1524C60.4776 14.7381 60.6923 13.23 60.5962 11.726C60.5 10.222 60.095 8.75469 59.4061 7.41945C58.7172 6.08419 57.7599 4.91047 56.5965 3.97352C55.4332 3.03652 54.0894 2.357 52.6516 1.97938C51.2137 1.60177 49.7138 1.53421 48.2487 1.78086C46.7837 2.02748 45.3858 2.58286 44.1452 3.41121C42.9046 4.2397 41.8479 5.32303 41.045 6.59096C40.8779 6.85478 40.5323 6.9313 40.2724 6.76176C40.0124 6.59221 39.937 6.24146 40.1041 5.97763C40.9916 4.57613 42.1587 3.3787 43.53 2.46294C44.9011 1.54735 46.4459 0.933327 48.0651 0.660681ZM14.9943 3.0186C16.8802 2.32912 18.9049 2.12417 20.8878 2.42191C21.1933 2.46778 21.4047 2.75627 21.3599 3.06629C21.3146 3.37652 21.0295 3.59131 20.7239 3.54541C18.9237 3.27513 17.0856 3.46181 15.3735 4.08775C13.6615 4.71373 12.1284 5.75998 10.9116 7.1333C9.69509 8.50653 8.83245 10.164 8.4004 11.9578C7.96834 13.752 7.97993 15.6275 8.43537 17.4156C8.51248 17.719 8.33315 18.028 8.03431 18.1066C7.73517 18.1851 7.42979 18.0031 7.35241 17.6996C6.85074 15.7299 6.83716 13.6645 7.31306 11.6883C7.78899 9.71215 8.73978 7.8863 10.08 6.37358C11.4203 4.86087 13.1085 3.70808 14.9943 3.0186Z"/>
</mask>
<path d="M61.5019 39.1138L61.5413 39.6384C61.8034 43.1428 61.4024 46.5685 60.5457 49.893C59.6862 53.2286 58.2951 56.3044 56.4576 58.9276C54.62 61.5507 52.3759 63.6659 49.8658 65.1407C47.3556 66.6155 44.6321 67.4185 41.8666 67.4997C41.5579 67.5086 41.3008 67.2618 41.2918 66.9485C41.2828 66.635 41.526 66.3731 41.8349 66.364C44.4054 66.2885 46.948 65.5429 49.3052 64.158C51.6641 62.7721 53.7917 60.7729 55.5451 58.2699C57.2988 55.7665 58.6361 52.818 59.4639 49.6057C60.2511 46.5506 60.6354 43.4278 60.4594 40.2495H40.8415C40.5325 40.2495 40.282 39.9952 40.282 39.6816C40.282 39.368 40.5325 39.1138 40.8415 39.1138H61.5019ZM36.9249 62.3957V3.92361C30.2226 4.1841 23.8523 6.72068 19.1058 11.0129C14.2281 15.4239 11.4139 21.3512 11.2005 27.5627C11.1897 27.876 10.9301 28.1215 10.6213 28.1105C10.3127 28.0994 10.0707 27.836 10.0815 27.5227C10.3063 20.9821 13.2704 14.7696 18.3616 10.1655C23.453 5.56136 30.3112 2.91105 37.4735 2.77127L38.044 2.76018V62.3957C38.044 62.7093 37.7934 62.9635 37.4845 62.9635C37.1754 62.9635 36.9249 62.7093 36.9249 62.3957ZM19.0206 36.8424C19.3295 36.8424 19.5801 37.0966 19.5801 37.4102C19.5801 37.7238 19.3295 37.978 19.0206 37.9781C16.8073 37.9781 14.6439 38.6444 12.8036 39.8923C10.9635 41.1402 9.52858 42.9134 8.68161 44.9886C7.83465 47.0638 7.61383 49.348 8.0456 51.5511C8.47743 53.754 9.54272 55.7778 11.1076 57.366C12.6725 58.9542 14.6666 60.0354 16.8372 60.4736C19.0078 60.9119 21.2585 60.6877 23.3032 59.8282C25.3479 58.9686 27.0951 57.5122 28.3246 55.6447C29.5542 53.777 30.2108 51.5813 30.2108 49.3351C30.2108 49.0215 30.4613 48.7672 30.7703 48.7672C31.0792 48.7673 31.3298 49.0215 31.3298 49.3351C31.3298 51.8059 30.6082 54.2214 29.2557 56.2757C27.9031 58.3302 25.9797 59.9318 23.7305 60.8773C21.4814 61.8227 19.0062 62.0703 16.6186 61.5883C14.231 61.1062 12.0378 59.916 10.3164 58.169C8.59495 56.4218 7.4223 54.1951 6.94734 51.7718C6.47255 49.3486 6.71624 46.8364 7.64783 44.5538C8.5795 42.2712 10.1577 40.3201 12.1818 38.9474C14.206 37.5748 16.5861 36.8424 19.0206 36.8424ZM8.91547 23.184C9.20947 23.0878 9.52428 23.2517 9.61923 23.55C9.71411 23.8484 9.55269 24.169 9.25861 24.2653C7.3085 24.904 5.57224 26.0814 4.24486 27.6658C2.91751 29.2502 2.05101 31.1784 1.74345 33.2345C1.43593 35.2908 1.69956 37.3939 2.50403 39.3068C3.30851 41.2196 4.62245 42.8676 6.29822 44.0647C6.55061 44.2453 6.6114 44.5992 6.43373 44.8555C6.25586 45.112 5.90616 45.1735 5.65347 44.993C3.80776 43.6744 2.36069 41.8595 1.47462 39.7526C0.588543 37.6456 0.298864 35.3297 0.637537 33.0648C0.976262 30.7998 1.93025 28.6747 3.39248 26.9294C4.85467 25.1842 6.76737 23.8874 8.91547 23.184ZM55.3814 23.5023C58.063 22.8605 60.8856 23.3 63.2539 24.7289C65.6222 26.1581 67.3521 28.465 68.0775 31.1627C68.8028 33.8606 68.467 36.7394 67.142 39.1914C66.9933 39.466 66.6533 39.5662 66.3825 39.4154C66.1119 39.2645 66.0133 38.9195 66.1618 38.6446C67.347 36.451 67.6466 33.8758 66.9978 31.4622C66.3488 29.0484 64.8014 26.9848 62.6823 25.706C60.5633 24.4273 58.0377 24.0327 55.6382 24.6069C53.2388 25.1812 51.153 26.679 49.8201 28.7838C49.653 29.0476 49.3064 29.1241 49.0464 28.9546C48.7866 28.785 48.7111 28.4331 48.8781 28.1693C50.3678 25.817 52.6997 24.1441 55.3814 23.5023ZM48.146 16.0903C48.4312 15.9703 48.7585 16.1081 48.877 16.3975C48.9953 16.6869 48.8604 17.019 48.5754 17.1395C47.3745 17.6462 46.288 18.3971 45.3845 19.3465C44.481 20.2959 43.7796 21.4238 43.3223 22.6594C42.8651 23.895 42.6624 25.2129 42.7268 26.5312C42.7912 27.8494 43.1208 29.1406 43.6961 30.3243C44.2714 31.5079 45.0804 32.559 46.0718 33.4131C47.0633 34.267 48.2164 34.9059 49.4606 35.2896C50.7049 35.6734 52.014 35.7944 53.3061 35.6446C54.5983 35.4947 55.8466 35.0767 56.9736 34.4179C57.2413 34.2616 57.5833 34.3558 57.7374 34.6275C57.8914 34.8992 57.7997 35.2463 57.532 35.4028C56.2724 36.139 54.877 36.605 53.4329 36.7725C51.989 36.9399 50.5266 36.8053 49.136 36.3765C47.7453 35.9477 46.4555 35.2338 45.3473 34.2793C44.2392 33.3248 43.3359 32.1495 42.6929 30.8267C42.0498 29.5037 41.6808 28.0601 41.6088 26.5867C41.537 25.1134 41.7634 23.641 42.2744 22.2601C42.7854 20.8791 43.5703 19.6191 44.5802 18.558C45.59 17.4969 46.8038 16.6566 48.146 16.0903ZM63.6724 13.1168C63.7943 12.8288 64.1229 12.696 64.4068 12.8196C65.5102 13.3 66.48 14.0493 67.2284 15.0023C67.9767 15.9552 68.4807 17.0819 68.696 18.2807C68.9112 19.4797 68.8301 20.7145 68.461 21.8742C68.0919 23.0337 67.4459 24.0829 66.5803 24.9275C66.3576 25.1446 66.0033 25.1378 65.7892 24.9119C65.575 24.6859 65.5828 24.3263 65.8055 24.109C66.538 23.3943 67.0843 22.5061 67.3967 21.5248C67.7089 20.5436 67.7766 19.4992 67.5945 18.4848C67.4123 17.4704 66.9862 16.5174 66.353 15.711C65.7198 14.9045 64.8991 14.2698 63.9653 13.8632C63.6814 13.7395 63.5506 13.405 63.6724 13.1168ZM48.0651 0.660681C49.6843 0.388084 51.3423 0.463017 52.9313 0.88028C54.5205 1.29765 56.0068 2.0484 57.2927 3.08403C58.5783 4.11956 59.6359 5.41697 60.3973 6.89263C61.1588 8.36852 61.6068 9.99032 61.713 11.6528C61.8193 13.3152 61.5818 14.9818 61.0147 16.545C60.4475 18.1083 59.5636 19.5341 58.4204 20.7296C58.2053 20.9546 57.851 20.96 57.6292 20.7418C57.4075 20.5234 57.402 20.1639 57.6172 19.9388C58.6516 18.8571 59.4514 17.5669 59.9646 16.1524C60.4776 14.7381 60.6923 13.23 60.5962 11.726C60.5 10.222 60.095 8.75469 59.4061 7.41945C58.7172 6.08419 57.7599 4.91047 56.5965 3.97352C55.4332 3.03652 54.0894 2.357 52.6516 1.97938C51.2137 1.60177 49.7138 1.53421 48.2487 1.78086C46.7837 2.02748 45.3858 2.58286 44.1452 3.41121C42.9046 4.2397 41.8479 5.32303 41.045 6.59096C40.8779 6.85478 40.5323 6.9313 40.2724 6.76176C40.0124 6.59221 39.937 6.24146 40.1041 5.97763C40.9916 4.57613 42.1587 3.3787 43.53 2.46294C44.9011 1.54735 46.4459 0.933327 48.0651 0.660681ZM14.9943 3.0186C16.8802 2.32912 18.9049 2.12417 20.8878 2.42191C21.1933 2.46778 21.4047 2.75627 21.3599 3.06629C21.3146 3.37652 21.0295 3.59131 20.7239 3.54541C18.9237 3.27513 17.0856 3.46181 15.3735 4.08775C13.6615 4.71373 12.1284 5.75998 10.9116 7.1333C9.69509 8.50653 8.83245 10.164 8.4004 11.9578C7.96834 13.752 7.97993 15.6275 8.43537 17.4156C8.51248 17.719 8.33315 18.028 8.03431 18.1066C7.73517 18.1851 7.42979 18.0031 7.35241 17.6996C6.85074 15.7299 6.83716 13.6645 7.31306 11.6883C7.78899 9.71215 8.73978 7.8863 10.08 6.37358C11.4203 4.86087 13.1085 3.70808 14.9943 3.0186Z" fill="white"/>
<path d="M61.5019 39.1138L61.5413 39.6384C61.8034 43.1428 61.4024 46.5685 60.5457 49.893C59.6862 53.2286 58.2951 56.3044 56.4576 58.9276C54.62 61.5507 52.3759 63.6659 49.8658 65.1407C47.3556 66.6155 44.6321 67.4185 41.8666 67.4997C41.5579 67.5086 41.3008 67.2618 41.2918 66.9485C41.2828 66.635 41.526 66.3731 41.8349 66.364C44.4054 66.2885 46.948 65.5429 49.3052 64.158C51.6641 62.7721 53.7917 60.7729 55.5451 58.2699C57.2988 55.7665 58.6361 52.818 59.4639 49.6057C60.2511 46.5506 60.6354 43.4278 60.4594 40.2495H40.8415C40.5325 40.2495 40.282 39.9952 40.282 39.6816C40.282 39.368 40.5325 39.1138 40.8415 39.1138H61.5019ZM36.9249 62.3957V3.92361C30.2226 4.1841 23.8523 6.72068 19.1058 11.0129C14.2281 15.4239 11.4139 21.3512 11.2005 27.5627C11.1897 27.876 10.9301 28.1215 10.6213 28.1105C10.3127 28.0994 10.0707 27.836 10.0815 27.5227C10.3063 20.9821 13.2704 14.7696 18.3616 10.1655C23.453 5.56136 30.3112 2.91105 37.4735 2.77127L38.044 2.76018V62.3957C38.044 62.7093 37.7934 62.9635 37.4845 62.9635C37.1754 62.9635 36.9249 62.7093 36.9249 62.3957ZM19.0206 36.8424C19.3295 36.8424 19.5801 37.0966 19.5801 37.4102C19.5801 37.7238 19.3295 37.978 19.0206 37.9781C16.8073 37.9781 14.6439 38.6444 12.8036 39.8923C10.9635 41.1402 9.52858 42.9134 8.68161 44.9886C7.83465 47.0638 7.61383 49.348 8.0456 51.5511C8.47743 53.754 9.54272 55.7778 11.1076 57.366C12.6725 58.9542 14.6666 60.0354 16.8372 60.4736C19.0078 60.9119 21.2585 60.6877 23.3032 59.8282C25.3479 58.9686 27.0951 57.5122 28.3246 55.6447C29.5542 53.777 30.2108 51.5813 30.2108 49.3351C30.2108 49.0215 30.4613 48.7672 30.7703 48.7672C31.0792 48.7673 31.3298 49.0215 31.3298 49.3351C31.3298 51.8059 30.6082 54.2214 29.2557 56.2757C27.9031 58.3302 25.9797 59.9318 23.7305 60.8773C21.4814 61.8227 19.0062 62.0703 16.6186 61.5883C14.231 61.1062 12.0378 59.916 10.3164 58.169C8.59495 56.4218 7.4223 54.1951 6.94734 51.7718C6.47255 49.3486 6.71624 46.8364 7.64783 44.5538C8.5795 42.2712 10.1577 40.3201 12.1818 38.9474C14.206 37.5748 16.5861 36.8424 19.0206 36.8424ZM8.91547 23.184C9.20947 23.0878 9.52428 23.2517 9.61923 23.55C9.71411 23.8484 9.55269 24.169 9.25861 24.2653C7.3085 24.904 5.57224 26.0814 4.24486 27.6658C2.91751 29.2502 2.05101 31.1784 1.74345 33.2345C1.43593 35.2908 1.69956 37.3939 2.50403 39.3068C3.30851 41.2196 4.62245 42.8676 6.29822 44.0647C6.55061 44.2453 6.6114 44.5992 6.43373 44.8555C6.25586 45.112 5.90616 45.1735 5.65347 44.993C3.80776 43.6744 2.36069 41.8595 1.47462 39.7526C0.588543 37.6456 0.298864 35.3297 0.637537 33.0648C0.976262 30.7998 1.93025 28.6747 3.39248 26.9294C4.85467 25.1842 6.76737 23.8874 8.91547 23.184ZM55.3814 23.5023C58.063 22.8605 60.8856 23.3 63.2539 24.7289C65.6222 26.1581 67.3521 28.465 68.0775 31.1627C68.8028 33.8606 68.467 36.7394 67.142 39.1914C66.9933 39.466 66.6533 39.5662 66.3825 39.4154C66.1119 39.2645 66.0133 38.9195 66.1618 38.6446C67.347 36.451 67.6466 33.8758 66.9978 31.4622C66.3488 29.0484 64.8014 26.9848 62.6823 25.706C60.5633 24.4273 58.0377 24.0327 55.6382 24.6069C53.2388 25.1812 51.153 26.679 49.8201 28.7838C49.653 29.0476 49.3064 29.1241 49.0464 28.9546C48.7866 28.785 48.7111 28.4331 48.8781 28.1693C50.3678 25.817 52.6997 24.1441 55.3814 23.5023ZM48.146 16.0903C48.4312 15.9703 48.7585 16.1081 48.877 16.3975C48.9953 16.6869 48.8604 17.019 48.5754 17.1395C47.3745 17.6462 46.288 18.3971 45.3845 19.3465C44.481 20.2959 43.7796 21.4238 43.3223 22.6594C42.8651 23.895 42.6624 25.2129 42.7268 26.5312C42.7912 27.8494 43.1208 29.1406 43.6961 30.3243C44.2714 31.5079 45.0804 32.559 46.0718 33.4131C47.0633 34.267 48.2164 34.9059 49.4606 35.2896C50.7049 35.6734 52.014 35.7944 53.3061 35.6446C54.5983 35.4947 55.8466 35.0767 56.9736 34.4179C57.2413 34.2616 57.5833 34.3558 57.7374 34.6275C57.8914 34.8992 57.7997 35.2463 57.532 35.4028C56.2724 36.139 54.877 36.605 53.4329 36.7725C51.989 36.9399 50.5266 36.8053 49.136 36.3765C47.7453 35.9477 46.4555 35.2338 45.3473 34.2793C44.2392 33.3248 43.3359 32.1495 42.6929 30.8267C42.0498 29.5037 41.6808 28.0601 41.6088 26.5867C41.537 25.1134 41.7634 23.641 42.2744 22.2601C42.7854 20.8791 43.5703 19.6191 44.5802 18.558C45.59 17.4969 46.8038 16.6566 48.146 16.0903ZM63.6724 13.1168C63.7943 12.8288 64.1229 12.696 64.4068 12.8196C65.5102 13.3 66.48 14.0493 67.2284 15.0023C67.9767 15.9552 68.4807 17.0819 68.696 18.2807C68.9112 19.4797 68.8301 20.7145 68.461 21.8742C68.0919 23.0337 67.4459 24.0829 66.5803 24.9275C66.3576 25.1446 66.0033 25.1378 65.7892 24.9119C65.575 24.6859 65.5828 24.3263 65.8055 24.109C66.538 23.3943 67.0843 22.5061 67.3967 21.5248C67.7089 20.5436 67.7766 19.4992 67.5945 18.4848C67.4123 17.4704 66.9862 16.5174 66.353 15.711C65.7198 14.9045 64.8991 14.2698 63.9653 13.8632C63.6814 13.7395 63.5506 13.405 63.6724 13.1168ZM48.0651 0.660681C49.6843 0.388084 51.3423 0.463017 52.9313 0.88028C54.5205 1.29765 56.0068 2.0484 57.2927 3.08403C58.5783 4.11956 59.6359 5.41697 60.3973 6.89263C61.1588 8.36852 61.6068 9.99032 61.713 11.6528C61.8193 13.3152 61.5818 14.9818 61.0147 16.545C60.4475 18.1083 59.5636 19.5341 58.4204 20.7296C58.2053 20.9546 57.851 20.96 57.6292 20.7418C57.4075 20.5234 57.402 20.1639 57.6172 19.9388C58.6516 18.8571 59.4514 17.5669 59.9646 16.1524C60.4776 14.7381 60.6923 13.23 60.5962 11.726C60.5 10.222 60.095 8.75469 59.4061 7.41945C58.7172 6.08419 57.7599 4.91047 56.5965 3.97352C55.4332 3.03652 54.0894 2.357 52.6516 1.97938C51.2137 1.60177 49.7138 1.53421 48.2487 1.78086C46.7837 2.02748 45.3858 2.58286 44.1452 3.41121C42.9046 4.2397 41.8479 5.32303 41.045 6.59096C40.8779 6.85478 40.5323 6.9313 40.2724 6.76176C40.0124 6.59221 39.937 6.24146 40.1041 5.97763C40.9916 4.57613 42.1587 3.3787 43.53 2.46294C44.9011 1.54735 46.4459 0.933327 48.0651 0.660681ZM14.9943 3.0186C16.8802 2.32912 18.9049 2.12417 20.8878 2.42191C21.1933 2.46778 21.4047 2.75627 21.3599 3.06629C21.3146 3.37652 21.0295 3.59131 20.7239 3.54541C18.9237 3.27513 17.0856 3.46181 15.3735 4.08775C13.6615 4.71373 12.1284 5.75998 10.9116 7.1333C9.69509 8.50653 8.83245 10.164 8.4004 11.9578C7.96834 13.752 7.97993 15.6275 8.43537 17.4156C8.51248 17.719 8.33315 18.028 8.03431 18.1066C7.73517 18.1851 7.42979 18.0031 7.35241 17.6996C6.85074 15.7299 6.83716 13.6645 7.31306 11.6883C7.78899 9.71215 8.73978 7.8863 10.08 6.37358C11.4203 4.86087 13.1085 3.70808 14.9943 3.0186Z" stroke="white" stroke-linecap="round" mask="url(#path-12-outside-1_141_80)"/>
<line x1="83.8361" y1="47.5107" x2="282.618" y2="47.5107" stroke="white" stroke-linecap="round"/>
<mask id="path-14-outside-2_141_80" maskUnits="userSpaceOnUse" x="83.4082" y="54.5234" width="200" height="11" fill="black">
<rect fill="white" x="83.4082" y="54.5234" width="200" height="11"/>
<path d="M87.7582 55.6842C88.5979 55.6842 89.2992 55.9656 89.862 56.5284C90.4248 57.0912 90.7062 57.7925 90.7062 58.6322C90.7062 59.472 90.4248 60.1732 89.862 60.736C89.2992 61.2988 88.5979 61.5802 87.7582 61.5802H85.3462V65.0642H84.4082V55.6842H87.7582ZM87.7582 60.6958C88.3389 60.6958 88.8168 60.5038 89.192 60.1196C89.5761 59.7266 89.7682 59.2308 89.7682 58.6322C89.7682 58.0337 89.5761 57.5424 89.192 57.1582C88.8168 56.7652 88.3389 56.5686 87.7582 56.5686H85.3462V60.6958H87.7582Z"/>
<path d="M99.0184 65.225C98.1608 65.225 97.4238 65.024 96.8074 64.622C96.1999 64.2111 95.7756 63.6483 95.5344 62.9336L96.3384 62.4646C96.5081 63.0453 96.8208 63.5009 97.2764 63.8314C97.732 64.153 98.3171 64.3138 99.0318 64.3138C99.7286 64.3138 100.269 64.162 100.653 63.8582C101.046 63.5456 101.243 63.1346 101.243 62.6254C101.243 62.1341 101.064 61.7634 100.707 61.5132C100.349 61.2631 99.7598 61.004 98.938 60.736C97.9642 60.4144 97.321 60.1554 97.0084 59.9588C96.2937 59.53 95.9364 58.9092 95.9364 58.0962C95.9364 57.3012 96.2133 56.6758 96.7672 56.2202C97.321 55.7557 98.0044 55.5234 98.8174 55.5234C99.5499 55.5234 100.184 55.7155 100.72 56.0996C101.256 56.4748 101.654 56.9572 101.913 57.5468L101.122 57.989C100.693 56.9528 99.9251 56.4346 98.8174 56.4346C98.2367 56.4346 97.7677 56.5776 97.4104 56.8634C97.053 57.1493 96.8744 57.5468 96.8744 58.056C96.8744 58.5206 97.0352 58.869 97.3568 59.1012C97.6784 59.3335 98.2099 59.5702 98.9514 59.8114C99.2908 59.9276 99.532 60.0124 99.675 60.066C99.8268 60.1107 100.041 60.1911 100.318 60.3072C100.604 60.4144 100.814 60.5127 100.948 60.602C101.082 60.6824 101.243 60.7986 101.43 60.9504C101.627 61.0934 101.765 61.2408 101.846 61.3926C101.935 61.5356 102.011 61.7142 102.074 61.9286C102.145 62.1341 102.181 62.3574 102.181 62.5986C102.181 63.3937 101.89 64.0324 101.31 64.5148C100.729 64.9883 99.9653 65.225 99.0184 65.225Z"/>
<path d="M107.746 55.6842H108.684V65.0642H107.746V55.6842Z"/>
<path d="M119.236 65.225C117.815 65.225 116.641 64.756 115.711 63.818C114.782 62.88 114.318 61.7321 114.318 60.3742C114.318 59.0164 114.782 57.8684 115.711 56.9304C116.641 55.9924 117.815 55.5234 119.236 55.5234C120.102 55.5234 120.897 55.7334 121.621 56.1532C122.344 56.5642 122.903 57.1225 123.296 57.8282L122.465 58.3106C122.17 57.7389 121.733 57.2833 121.152 56.9438C120.571 56.6044 119.932 56.4346 119.236 56.4346C118.065 56.4346 117.11 56.8143 116.368 57.5736C115.627 58.333 115.256 59.2665 115.256 60.3742C115.256 61.482 115.627 62.4155 116.368 63.1748C117.11 63.9342 118.065 64.3138 119.236 64.3138C119.932 64.3138 120.571 64.1441 121.152 63.8046C121.733 63.4652 122.17 63.0096 122.465 62.4378L123.296 62.9068C122.912 63.6126 122.353 64.1754 121.621 64.5952C120.897 65.0151 120.102 65.225 119.236 65.225Z"/>
<path d="M134.888 55.6842H135.826V65.0642H134.888V60.6824H129.796V65.0642H128.858V55.6842H129.796V59.798H134.888V55.6842Z"/>
<path d="M149.745 63.818C148.807 64.756 147.659 65.225 146.301 65.225C144.943 65.225 143.795 64.756 142.857 63.818C141.919 62.8711 141.45 61.7232 141.45 60.3742C141.45 59.0253 141.919 57.8818 142.857 56.9438C143.795 55.9969 144.943 55.5234 146.301 55.5234C147.659 55.5234 148.807 55.9969 149.745 56.9438C150.683 57.8818 151.152 59.0253 151.152 60.3742C151.152 61.7232 150.683 62.8711 149.745 63.818ZM143.514 63.1748C144.264 63.9342 145.193 64.3138 146.301 64.3138C147.409 64.3138 148.338 63.9342 149.088 63.1748C149.839 62.4066 150.214 61.473 150.214 60.3742C150.214 59.2754 149.839 58.3464 149.088 57.587C148.338 56.8188 147.409 56.4346 146.301 56.4346C145.193 56.4346 144.264 56.8188 143.514 57.587C142.763 58.3464 142.388 59.2754 142.388 60.3742C142.388 61.473 142.763 62.4066 143.514 63.1748Z"/>
<path d="M157.714 64.1798H162.002V65.0642H156.776V55.6842H157.714V64.1798Z"/>
<path d="M174.456 63.818C173.518 64.756 172.37 65.225 171.012 65.225C169.655 65.225 168.507 64.756 167.569 63.818C166.631 62.8711 166.162 61.7232 166.162 60.3742C166.162 59.0253 166.631 57.8818 167.569 56.9438C168.507 55.9969 169.655 55.5234 171.012 55.5234C172.37 55.5234 173.518 55.9969 174.456 56.9438C175.394 57.8818 175.863 59.0253 175.863 60.3742C175.863 61.7232 175.394 62.8711 174.456 63.818ZM168.225 63.1748C168.976 63.9342 169.905 64.3138 171.012 64.3138C172.12 64.3138 173.049 63.9342 173.8 63.1748C174.55 62.4066 174.925 61.473 174.925 60.3742C174.925 59.2754 174.55 58.3464 173.8 57.587C173.049 56.8188 172.12 56.4346 171.012 56.4346C169.905 56.4346 168.976 56.8188 168.225 57.587C167.475 58.3464 167.1 59.2754 167.1 60.3742C167.1 61.473 167.475 62.4066 168.225 63.1748Z"/>
<path d="M190.452 60.602V61.0844C190.452 62.2458 190.037 63.2284 189.206 64.0324C188.375 64.8275 187.263 65.225 185.869 65.225C184.449 65.225 183.274 64.756 182.345 63.818C181.416 62.88 180.951 61.7321 180.951 60.3742C180.951 59.0164 181.416 57.8684 182.345 56.9304C183.274 55.9924 184.449 55.5234 185.869 55.5234C186.736 55.5234 187.531 55.7334 188.254 56.1532C188.978 56.5731 189.536 57.1314 189.929 57.8282L189.099 58.3106C188.804 57.7389 188.366 57.2833 187.785 56.9438C187.205 56.6044 186.566 56.4346 185.869 56.4346C184.699 56.4346 183.743 56.8143 183.002 57.5736C182.26 58.333 181.889 59.2665 181.889 60.3742C181.889 61.482 182.26 62.4155 183.002 63.1748C183.743 63.9342 184.699 64.3138 185.869 64.3138C186.923 64.3138 187.767 64.0503 188.402 63.5232C189.036 62.9872 189.398 62.3083 189.487 61.4864H185.762V60.602H190.452Z"/>
<path d="M202.18 55.6842L198.79 61.2184V65.0642H197.852V61.1916L194.475 55.6842H195.534L198.335 60.2804L201.122 55.6842H202.18Z"/>
<path d="M219.154 65.225C217.734 65.225 216.559 64.756 215.63 63.818C214.701 62.88 214.237 61.7321 214.237 60.3742C214.237 59.0164 214.701 57.8684 215.63 56.9304C216.559 55.9924 217.734 55.5234 219.154 55.5234C220.021 55.5234 220.816 55.7334 221.54 56.1532C222.263 56.5642 222.822 57.1225 223.215 57.8282L222.384 58.3106C222.089 57.7389 221.651 57.2833 221.071 56.9438C220.49 56.6044 219.851 56.4346 219.154 56.4346C217.984 56.4346 217.028 56.8143 216.287 57.5736C215.545 58.333 215.175 59.2665 215.175 60.3742C215.175 61.482 215.545 62.4155 216.287 63.1748C217.028 63.9342 217.984 64.3138 219.154 64.3138C219.851 64.3138 220.49 64.1441 221.071 63.8046C221.651 63.4652 222.089 63.0096 222.384 62.4378L223.215 62.9068C222.831 63.6126 222.272 64.1754 221.54 64.5952C220.816 65.0151 220.021 65.225 219.154 65.225Z"/>
<path d="M229.715 64.1798H234.271V65.0642H228.777V55.6842H234.204V56.5686H229.715V59.8918H233.869V60.7762H229.715V64.1798Z"/>
<path d="M245.933 55.6842H246.871V65.0642H246.067L240.841 57.4262V65.0642H239.903V55.6842H240.707L245.933 63.3222V55.6842Z"/>
<path d="M258.927 55.6842V56.5686H256.046V65.0642H255.108V56.5686H252.227V55.6842H258.927Z"/>
<path d="M265.225 64.1798H269.781V65.0642H264.287V55.6842H269.714V56.5686H265.225V59.8918H269.379V60.7762H265.225V64.1798Z"/>
<path d="M281.175 65.0642L278.977 61.3122H276.351V65.0642H275.413V55.6842H279.165C279.942 55.6842 280.603 55.9612 281.148 56.515C281.702 57.06 281.979 57.721 281.979 58.4982C281.979 59.1325 281.787 59.6998 281.403 60.2C281.027 60.6914 280.545 61.0219 279.955 61.1916L282.247 65.0642H281.175ZM276.351 56.5686V60.4278H279.165C279.683 60.4278 280.125 60.2402 280.491 59.865C280.858 59.4809 281.041 59.0253 281.041 58.4982C281.041 57.9622 280.858 57.5066 280.491 57.1314C280.125 56.7562 279.683 56.5686 279.165 56.5686H276.351Z"/>
</mask>
<path d="M87.7582 55.6842C88.5979 55.6842 89.2992 55.9656 89.862 56.5284C90.4248 57.0912 90.7062 57.7925 90.7062 58.6322C90.7062 59.472 90.4248 60.1732 89.862 60.736C89.2992 61.2988 88.5979 61.5802 87.7582 61.5802H85.3462V65.0642H84.4082V55.6842H87.7582ZM87.7582 60.6958C88.3389 60.6958 88.8168 60.5038 89.192 60.1196C89.5761 59.7266 89.7682 59.2308 89.7682 58.6322C89.7682 58.0337 89.5761 57.5424 89.192 57.1582C88.8168 56.7652 88.3389 56.5686 87.7582 56.5686H85.3462V60.6958H87.7582Z" fill="white"/>
<path d="M99.0184 65.225C98.1608 65.225 97.4238 65.024 96.8074 64.622C96.1999 64.2111 95.7756 63.6483 95.5344 62.9336L96.3384 62.4646C96.5081 63.0453 96.8208 63.5009 97.2764 63.8314C97.732 64.153 98.3171 64.3138 99.0318 64.3138C99.7286 64.3138 100.269 64.162 100.653 63.8582C101.046 63.5456 101.243 63.1346 101.243 62.6254C101.243 62.1341 101.064 61.7634 100.707 61.5132C100.349 61.2631 99.7598 61.004 98.938 60.736C97.9642 60.4144 97.321 60.1554 97.0084 59.9588C96.2937 59.53 95.9364 58.9092 95.9364 58.0962C95.9364 57.3012 96.2133 56.6758 96.7672 56.2202C97.321 55.7557 98.0044 55.5234 98.8174 55.5234C99.5499 55.5234 100.184 55.7155 100.72 56.0996C101.256 56.4748 101.654 56.9572 101.913 57.5468L101.122 57.989C100.693 56.9528 99.9251 56.4346 98.8174 56.4346C98.2367 56.4346 97.7677 56.5776 97.4104 56.8634C97.053 57.1493 96.8744 57.5468 96.8744 58.056C96.8744 58.5206 97.0352 58.869 97.3568 59.1012C97.6784 59.3335 98.2099 59.5702 98.9514 59.8114C99.2908 59.9276 99.532 60.0124 99.675 60.066C99.8268 60.1107 100.041 60.1911 100.318 60.3072C100.604 60.4144 100.814 60.5127 100.948 60.602C101.082 60.6824 101.243 60.7986 101.43 60.9504C101.627 61.0934 101.765 61.2408 101.846 61.3926C101.935 61.5356 102.011 61.7142 102.074 61.9286C102.145 62.1341 102.181 62.3574 102.181 62.5986C102.181 63.3937 101.89 64.0324 101.31 64.5148C100.729 64.9883 99.9653 65.225 99.0184 65.225Z" fill="white"/>
<path d="M107.746 55.6842H108.684V65.0642H107.746V55.6842Z" fill="white"/>
<path d="M119.236 65.225C117.815 65.225 116.641 64.756 115.711 63.818C114.782 62.88 114.318 61.7321 114.318 60.3742C114.318 59.0164 114.782 57.8684 115.711 56.9304C116.641 55.9924 117.815 55.5234 119.236 55.5234C120.102 55.5234 120.897 55.7334 121.621 56.1532C122.344 56.5642 122.903 57.1225 123.296 57.8282L122.465 58.3106C122.17 57.7389 121.733 57.2833 121.152 56.9438C120.571 56.6044 119.932 56.4346 119.236 56.4346C118.065 56.4346 117.11 56.8143 116.368 57.5736C115.627 58.333 115.256 59.2665 115.256 60.3742C115.256 61.482 115.627 62.4155 116.368 63.1748C117.11 63.9342 118.065 64.3138 119.236 64.3138C119.932 64.3138 120.571 64.1441 121.152 63.8046C121.733 63.4652 122.17 63.0096 122.465 62.4378L123.296 62.9068C122.912 63.6126 122.353 64.1754 121.621 64.5952C120.897 65.0151 120.102 65.225 119.236 65.225Z" fill="white"/>
<path d="M134.888 55.6842H135.826V65.0642H134.888V60.6824H129.796V65.0642H128.858V55.6842H129.796V59.798H134.888V55.6842Z" fill="white"/>
<path d="M149.745 63.818C148.807 64.756 147.659 65.225 146.301 65.225C144.943 65.225 143.795 64.756 142.857 63.818C141.919 62.8711 141.45 61.7232 141.45 60.3742C141.45 59.0253 141.919 57.8818 142.857 56.9438C143.795 55.9969 144.943 55.5234 146.301 55.5234C147.659 55.5234 148.807 55.9969 149.745 56.9438C150.683 57.8818 151.152 59.0253 151.152 60.3742C151.152 61.7232 150.683 62.8711 149.745 63.818ZM143.514 63.1748C144.264 63.9342 145.193 64.3138 146.301 64.3138C147.409 64.3138 148.338 63.9342 149.088 63.1748C149.839 62.4066 150.214 61.473 150.214 60.3742C150.214 59.2754 149.839 58.3464 149.088 57.587C148.338 56.8188 147.409 56.4346 146.301 56.4346C145.193 56.4346 144.264 56.8188 143.514 57.587C142.763 58.3464 142.388 59.2754 142.388 60.3742C142.388 61.473 142.763 62.4066 143.514 63.1748Z" fill="white"/>
<path d="M157.714 64.1798H162.002V65.0642H156.776V55.6842H157.714V64.1798Z" fill="white"/>
<path d="M174.456 63.818C173.518 64.756 172.37 65.225 171.012 65.225C169.655 65.225 168.507 64.756 167.569 63.818C166.631 62.8711 166.162 61.7232 166.162 60.3742C166.162 59.0253 166.631 57.8818 167.569 56.9438C168.507 55.9969 169.655 55.5234 171.012 55.5234C172.37 55.5234 173.518 55.9969 174.456 56.9438C175.394 57.8818 175.863 59.0253 175.863 60.3742C175.863 61.7232 175.394 62.8711 174.456 63.818ZM168.225 63.1748C168.976 63.9342 169.905 64.3138 171.012 64.3138C172.12 64.3138 173.049 63.9342 173.8 63.1748C174.55 62.4066 174.925 61.473 174.925 60.3742C174.925 59.2754 174.55 58.3464 173.8 57.587C173.049 56.8188 172.12 56.4346 171.012 56.4346C169.905 56.4346 168.976 56.8188 168.225 57.587C167.475 58.3464 167.1 59.2754 167.1 60.3742C167.1 61.473 167.475 62.4066 168.225 63.1748Z" fill="white"/>
<path d="M190.452 60.602V61.0844C190.452 62.2458 190.037 63.2284 189.206 64.0324C188.375 64.8275 187.263 65.225 185.869 65.225C184.449 65.225 183.274 64.756 182.345 63.818C181.416 62.88 180.951 61.7321 180.951 60.3742C180.951 59.0164 181.416 57.8684 182.345 56.9304C183.274 55.9924 184.449 55.5234 185.869 55.5234C186.736 55.5234 187.531 55.7334 188.254 56.1532C188.978 56.5731 189.536 57.1314 189.929 57.8282L189.099 58.3106C188.804 57.7389 188.366 57.2833 187.785 56.9438C187.205 56.6044 186.566 56.4346 185.869 56.4346C184.699 56.4346 183.743 56.8143 183.002 57.5736C182.26 58.333 181.889 59.2665 181.889 60.3742C181.889 61.482 182.26 62.4155 183.002 63.1748C183.743 63.9342 184.699 64.3138 185.869 64.3138C186.923 64.3138 187.767 64.0503 188.402 63.5232C189.036 62.9872 189.398 62.3083 189.487 61.4864H185.762V60.602H190.452Z" fill="white"/>
<path d="M202.18 55.6842L198.79 61.2184V65.0642H197.852V61.1916L194.475 55.6842H195.534L198.335 60.2804L201.122 55.6842H202.18Z" fill="white"/>
<path d="M219.154 65.225C217.734 65.225 216.559 64.756 215.63 63.818C214.701 62.88 214.237 61.7321 214.237 60.3742C214.237 59.0164 214.701 57.8684 215.63 56.9304C216.559 55.9924 217.734 55.5234 219.154 55.5234C220.021 55.5234 220.816 55.7334 221.54 56.1532C222.263 56.5642 222.822 57.1225 223.215 57.8282L222.384 58.3106C222.089 57.7389 221.651 57.2833 221.071 56.9438C220.49 56.6044 219.851 56.4346 219.154 56.4346C217.984 56.4346 217.028 56.8143 216.287 57.5736C215.545 58.333 215.175 59.2665 215.175 60.3742C215.175 61.482 215.545 62.4155 216.287 63.1748C217.028 63.9342 217.984 64.3138 219.154 64.3138C219.851 64.3138 220.49 64.1441 221.071 63.8046C221.651 63.4652 222.089 63.0096 222.384 62.4378L223.215 62.9068C222.831 63.6126 222.272 64.1754 221.54 64.5952C220.816 65.0151 220.021 65.225 219.154 65.225Z" fill="white"/>
<path d="M229.715 64.1798H234.271V65.0642H228.777V55.6842H234.204V56.5686H229.715V59.8918H233.869V60.7762H229.715V64.1798Z" fill="white"/>
<path d="M245.933 55.6842H246.871V65.0642H246.067L240.841 57.4262V65.0642H239.903V55.6842H240.707L245.933 63.3222V55.6842Z" fill="white"/>
<path d="M258.927 55.6842V56.5686H256.046V65.0642H255.108V56.5686H252.227V55.6842H258.927Z" fill="white"/>
<path d="M265.225 64.1798H269.781V65.0642H264.287V55.6842H269.714V56.5686H265.225V59.8918H269.379V60.7762H265.225V64.1798Z" fill="white"/>
<path d="M281.175 65.0642L278.977 61.3122H276.351V65.0642H275.413V55.6842H279.165C279.942 55.6842 280.603 55.9612 281.148 56.515C281.702 57.06 281.979 57.721 281.979 58.4982C281.979 59.1325 281.787 59.6998 281.403 60.2C281.027 60.6914 280.545 61.0219 279.955 61.1916L282.247 65.0642H281.175ZM276.351 56.5686V60.4278H279.165C279.683 60.4278 280.125 60.2402 280.491 59.865C280.858 59.4809 281.041 59.0253 281.041 58.4982C281.041 57.9622 280.858 57.5066 280.491 57.1314C280.125 56.7562 279.683 56.5686 279.165 56.5686H276.351Z" fill="white"/>
<path d="M87.7582 55.6842C88.5979 55.6842 89.2992 55.9656 89.862 56.5284C90.4248 57.0912 90.7062 57.7925 90.7062 58.6322C90.7062 59.472 90.4248 60.1732 89.862 60.736C89.2992 61.2988 88.5979 61.5802 87.7582 61.5802H85.3462V65.0642H84.4082V55.6842H87.7582ZM87.7582 60.6958C88.3389 60.6958 88.8168 60.5038 89.192 60.1196C89.5761 59.7266 89.7682 59.2308 89.7682 58.6322C89.7682 58.0337 89.5761 57.5424 89.192 57.1582C88.8168 56.7652 88.3389 56.5686 87.7582 56.5686H85.3462V60.6958H87.7582Z" stroke="white" stroke-width="0.4" mask="url(#path-14-outside-2_141_80)"/>
<path d="M99.0184 65.225C98.1608 65.225 97.4238 65.024 96.8074 64.622C96.1999 64.2111 95.7756 63.6483 95.5344 62.9336L96.3384 62.4646C96.5081 63.0453 96.8208 63.5009 97.2764 63.8314C97.732 64.153 98.3171 64.3138 99.0318 64.3138C99.7286 64.3138 100.269 64.162 100.653 63.8582C101.046 63.5456 101.243 63.1346 101.243 62.6254C101.243 62.1341 101.064 61.7634 100.707 61.5132C100.349 61.2631 99.7598 61.004 98.938 60.736C97.9642 60.4144 97.321 60.1554 97.0084 59.9588C96.2937 59.53 95.9364 58.9092 95.9364 58.0962C95.9364 57.3012 96.2133 56.6758 96.7672 56.2202C97.321 55.7557 98.0044 55.5234 98.8174 55.5234C99.5499 55.5234 100.184 55.7155 100.72 56.0996C101.256 56.4748 101.654 56.9572 101.913 57.5468L101.122 57.989C100.693 56.9528 99.9251 56.4346 98.8174 56.4346C98.2367 56.4346 97.7677 56.5776 97.4104 56.8634C97.053 57.1493 96.8744 57.5468 96.8744 58.056C96.8744 58.5206 97.0352 58.869 97.3568 59.1012C97.6784 59.3335 98.2099 59.5702 98.9514 59.8114C99.2908 59.9276 99.532 60.0124 99.675 60.066C99.8268 60.1107 100.041 60.1911 100.318 60.3072C100.604 60.4144 100.814 60.5127 100.948 60.602C101.082 60.6824 101.243 60.7986 101.43 60.9504C101.627 61.0934 101.765 61.2408 101.846 61.3926C101.935 61.5356 102.011 61.7142 102.074 61.9286C102.145 62.1341 102.181 62.3574 102.181 62.5986C102.181 63.3937 101.89 64.0324 101.31 64.5148C100.729 64.9883 99.9653 65.225 99.0184 65.225Z" stroke="white" stroke-width="0.4" mask="url(#path-14-outside-2_141_80)"/>
<path d="M107.746 55.6842H108.684V65.0642H107.746V55.6842Z" stroke="white" stroke-width="0.4" mask="url(#path-14-outside-2_141_80)"/>
<path d="M119.236 65.225C117.815 65.225 116.641 64.756 115.711 63.818C114.782 62.88 114.318 61.7321 114.318 60.3742C114.318 59.0164 114.782 57.8684 115.711 56.9304C116.641 55.9924 117.815 55.5234 119.236 55.5234C120.102 55.5234 120.897 55.7334 121.621 56.1532C122.344 56.5642 122.903 57.1225 123.296 57.8282L122.465 58.3106C122.17 57.7389 121.733 57.2833 121.152 56.9438C120.571 56.6044 119.932 56.4346 119.236 56.4346C118.065 56.4346 117.11 56.8143 116.368 57.5736C115.627 58.333 115.256 59.2665 115.256 60.3742C115.256 61.482 115.627 62.4155 116.368 63.1748C117.11 63.9342 118.065 64.3138 119.236 64.3138C119.932 64.3138 120.571 64.1441 121.152 63.8046C121.733 63.4652 122.17 63.0096 122.465 62.4378L123.296 62.9068C122.912 63.6126 122.353 64.1754 121.621 64.5952C120.897 65.0151 120.102 65.225 119.236 65.225Z" stroke="white" stroke-width="0.4" mask="url(#path-14-outside-2_141_80)"/>
<path d="M134.888 55.6842H135.826V65.0642H134.888V60.6824H129.796V65.0642H128.858V55.6842H129.796V59.798H134.888V55.6842Z" stroke="white" stroke-width="0.4" mask="url(#path-14-outside-2_141_80)"/>
<path d="M149.745 63.818C148.807 64.756 147.659 65.225 146.301 65.225C144.943 65.225 143.795 64.756 142.857 63.818C141.919 62.8711 141.45 61.7232 141.45 60.3742C141.45 59.0253 141.919 57.8818 142.857 56.9438C143.795 55.9969 144.943 55.5234 146.301 55.5234C147.659 55.5234 148.807 55.9969 149.745 56.9438C150.683 57.8818 151.152 59.0253 151.152 60.3742C151.152 61.7232 150.683 62.8711 149.745 63.818ZM143.514 63.1748C144.264 63.9342 145.193 64.3138 146.301 64.3138C147.409 64.3138 148.338 63.9342 149.088 63.1748C149.839 62.4066 150.214 61.473 150.214 60.3742C150.214 59.2754 149.839 58.3464 149.088 57.587C148.338 56.8188 147.409 56.4346 146.301 56.4346C145.193 56.4346 144.264 56.8188 143.514 57.587C142.763 58.3464 142.388 59.2754 142.388 60.3742C142.388 61.473 142.763 62.4066 143.514 63.1748Z" stroke="white" stroke-width="0.4" mask="url(#path-14-outside-2_141_80)"/>
<path d="M157.714 64.1798H162.002V65.0642H156.776V55.6842H157.714V64.1798Z" stroke="white" stroke-width="0.4" mask="url(#path-14-outside-2_141_80)"/>
<path d="M174.456 63.818C173.518 64.756 172.37 65.225 171.012 65.225C169.655 65.225 168.507 64.756 167.569 63.818C166.631 62.8711 166.162 61.7232 166.162 60.3742C166.162 59.0253 166.631 57.8818 167.569 56.9438C168.507 55.9969 169.655 55.5234 171.012 55.5234C172.37 55.5234 173.518 55.9969 174.456 56.9438C175.394 57.8818 175.863 59.0253 175.863 60.3742C175.863 61.7232 175.394 62.8711 174.456 63.818ZM168.225 63.1748C168.976 63.9342 169.905 64.3138 171.012 64.3138C172.12 64.3138 173.049 63.9342 173.8 63.1748C174.55 62.4066 174.925 61.473 174.925 60.3742C174.925 59.2754 174.55 58.3464 173.8 57.587C173.049 56.8188 172.12 56.4346 171.012 56.4346C169.905 56.4346 168.976 56.8188 168.225 57.587C167.475 58.3464 167.1 59.2754 167.1 60.3742C167.1 61.473 167.475 62.4066 168.225 63.1748Z" stroke="white" stroke-width="0.4" mask="url(#path-14-outside-2_141_80)"/>
<path d="M190.452 60.602V61.0844C190.452 62.2458 190.037 63.2284 189.206 64.0324C188.375 64.8275 187.263 65.225 185.869 65.225C184.449 65.225 183.274 64.756 182.345 63.818C181.416 62.88 180.951 61.7321 180.951 60.3742C180.951 59.0164 181.416 57.8684 182.345 56.9304C183.274 55.9924 184.449 55.5234 185.869 55.5234C186.736 55.5234 187.531 55.7334 188.254 56.1532C188.978 56.5731 189.536 57.1314 189.929 57.8282L189.099 58.3106C188.804 57.7389 188.366 57.2833 187.785 56.9438C187.205 56.6044 186.566 56.4346 185.869 56.4346C184.699 56.4346 183.743 56.8143 183.002 57.5736C182.26 58.333 181.889 59.2665 181.889 60.3742C181.889 61.482 182.26 62.4155 183.002 63.1748C183.743 63.9342 184.699 64.3138 185.869 64.3138C186.923 64.3138 187.767 64.0503 188.402 63.5232C189.036 62.9872 189.398 62.3083 189.487 61.4864H185.762V60.602H190.452Z" stroke="white" stroke-width="0.4" mask="url(#path-14-outside-2_141_80)"/>
<path d="M202.18 55.6842L198.79 61.2184V65.0642H197.852V61.1916L194.475 55.6842H195.534L198.335 60.2804L201.122 55.6842H202.18Z" stroke="white" stroke-width="0.4" mask="url(#path-14-outside-2_141_80)"/>
<path d="M219.154 65.225C217.734 65.225 216.559 64.756 215.63 63.818C214.701 62.88 214.237 61.7321 214.237 60.3742C214.237 59.0164 214.701 57.8684 215.63 56.9304C216.559 55.9924 217.734 55.5234 219.154 55.5234C220.021 55.5234 220.816 55.7334 221.54 56.1532C222.263 56.5642 222.822 57.1225 223.215 57.8282L222.384 58.3106C222.089 57.7389 221.651 57.2833 221.071 56.9438C220.49 56.6044 219.851 56.4346 219.154 56.4346C217.984 56.4346 217.028 56.8143 216.287 57.5736C215.545 58.333 215.175 59.2665 215.175 60.3742C215.175 61.482 215.545 62.4155 216.287 63.1748C217.028 63.9342 217.984 64.3138 219.154 64.3138C219.851 64.3138 220.49 64.1441 221.071 63.8046C221.651 63.4652 222.089 63.0096 222.384 62.4378L223.215 62.9068C222.831 63.6126 222.272 64.1754 221.54 64.5952C220.816 65.0151 220.021 65.225 219.154 65.225Z" stroke="white" stroke-width="0.4" mask="url(#path-14-outside-2_141_80)"/>
<path d="M229.715 64.1798H234.271V65.0642H228.777V55.6842H234.204V56.5686H229.715V59.8918H233.869V60.7762H229.715V64.1798Z" stroke="white" stroke-width="0.4" mask="url(#path-14-outside-2_141_80)"/>
<path d="M245.933 55.6842H246.871V65.0642H246.067L240.841 57.4262V65.0642H239.903V55.6842H240.707L245.933 63.3222V55.6842Z" stroke="white" stroke-width="0.4" mask="url(#path-14-outside-2_141_80)"/>
<path d="M258.927 55.6842V56.5686H256.046V65.0642H255.108V56.5686H252.227V55.6842H258.927Z" stroke="white" stroke-width="0.4" mask="url(#path-14-outside-2_141_80)"/>
<path d="M265.225 64.1798H269.781V65.0642H264.287V55.6842H269.714V56.5686H265.225V59.8918H269.379V60.7762H265.225V64.1798Z" stroke="white" stroke-width="0.4" mask="url(#path-14-outside-2_141_80)"/>
<path d="M281.175 65.0642L278.977 61.3122H276.351V65.0642H275.413V55.6842H279.165C279.942 55.6842 280.603 55.9612 281.148 56.515C281.702 57.06 281.979 57.721 281.979 58.4982C281.979 59.1325 281.787 59.6998 281.403 60.2C281.027 60.6914 280.545 61.0219 279.955 61.1916L282.247 65.0642H281.175ZM276.351 56.5686V60.4278H279.165C279.683 60.4278 280.125 60.2402 280.491 59.865C280.858 59.4809 281.041 59.0253 281.041 58.4982C281.041 57.9622 280.858 57.5066 280.491 57.1314C280.125 56.7562 279.683 56.5686 279.165 56.5686H276.351Z" stroke="white" stroke-width="0.4" mask="url(#path-14-outside-2_141_80)"/>
</svg>
