<svg width="22" height="22" viewBox="0 0 22 22" fill="none" xmlns="http://www.w3.org/2000/svg">
<path d="M15.3464 14.1139L14.7897 14.6999C14.7897 14.6999 13.4666 16.093 9.85489 12.2905C6.24325 8.48815 7.5664 7.09511 7.5664 7.09511L7.91693 6.72604C8.78056 5.81686 8.86196 4.35719 8.10846 3.29157L6.56731 1.11175C5.63478 -0.207168 3.83283 -0.381395 2.76399 0.743895L0.845592 2.76362C0.315612 3.32159 -0.0395411 4.04489 0.00353002 4.84727C0.113713 6.90002 0.990864 11.3167 5.88543 16.4698C11.0759 21.9343 15.9461 22.1515 17.9377 21.9549C18.5676 21.8928 19.1154 21.5531 19.5569 21.0882L21.2932 19.2604C22.4652 18.0265 22.1347 15.9111 20.6351 15.048L18.3001 13.704C17.3154 13.1373 16.116 13.3037 15.3464 14.1139Z" fill="#476D8B"/>
</svg>
