<svg width="34" height="147" viewBox="0 0 34 147" fill="none" xmlns="http://www.w3.org/2000/svg">
<path d="M27.8333 2.66675C27.8333 4.13951 29.0272 5.33341 30.5 5.33341C31.9728 5.33341 33.1667 4.13951 33.1667 2.66675C33.1667 1.19399 31.9728 8.13007e-05 30.5 8.13007e-05C29.0272 8.13007e-05 27.8333 1.19399 27.8333 2.66675ZM30.8536 143.02C31.0488 142.825 31.0488 142.508 30.8536 142.313L27.6716 139.131C27.4763 138.936 27.1597 138.936 26.9645 139.131C26.7692 139.326 26.7692 139.643 26.9645 139.838L29.7929 142.667L26.9645 145.495C26.7692 145.69 26.7692 146.007 26.9645 146.202C27.1597 146.398 27.4763 146.398 27.6716 146.202L30.8536 143.02ZM15.5 2.66675V3.16675H30.5V2.66675V2.16675H15.5V2.66675ZM30.5 142.667V142.167H15.5V142.667V143.167H30.5V142.667ZM0.5 127.667H1V17.6667H0.5H0V127.667H0.5ZM15.5 142.667V142.167C7.49187 142.167 1 135.675 1 127.667H0.5H0C0 136.227 6.93959 143.167 15.5 143.167V142.667ZM15.5 2.66675V2.16675C6.93959 2.16675 0 9.10634 0 17.6667H0.5H1C1 9.65862 7.49187 3.16675 15.5 3.16675V2.66675Z" fill="#87AFCE"/>
</svg>
