<svg width="34" height="381" viewBox="0 0 34 381" fill="none" xmlns="http://www.w3.org/2000/svg">
<path d="M27.8333 2.66675C27.8333 4.13951 29.0272 5.33341 30.5 5.33341C31.9728 5.33341 33.1667 4.13951 33.1667 2.66675C33.1667 1.19399 31.9728 8.13007e-05 30.5 8.13007e-05C29.0272 8.13007e-05 27.8333 1.19399 27.8333 2.66675ZM30.8536 377.02C31.0488 376.825 31.0488 376.508 30.8536 376.313L27.6716 373.131C27.4763 372.936 27.1597 372.936 26.9645 373.131C26.7692 373.326 26.7692 373.643 26.9645 373.838L29.7929 376.667L26.9645 379.495C26.7692 379.69 26.7692 380.007 26.9645 380.202C27.1597 380.398 27.4763 380.398 27.6716 380.202L30.8536 377.02ZM15.5 2.66675V3.16675H30.5V2.66675V2.16675H15.5V2.66675ZM30.5 376.667V376.167H15.5V376.667V377.167H30.5V376.667ZM0.5 361.667H1V17.6667H0.5H0V361.667H0.5ZM15.5 376.667V376.167C7.49187 376.167 1 369.675 1 361.667H0.5H0C0 370.227 6.93959 377.167 15.5 377.167V376.667ZM15.5 2.66675V2.16675C6.93959 2.16675 0 9.10633 0 17.6667H0.5H1C1 9.65862 7.49187 3.16675 15.5 3.16675V2.66675Z" fill="#87AFCE"/>
</svg>
