<svg width="34" height="620" viewBox="0 0 34 620" fill="none" xmlns="http://www.w3.org/2000/svg">
<path d="M27.8333 2.66675C27.8333 4.13951 29.0272 5.33341 30.5 5.33341C31.9728 5.33341 33.1667 4.13951 33.1667 2.66675C33.1667 1.19399 31.9728 8.13007e-05 30.5 8.13007e-05C29.0272 8.13007e-05 27.8333 1.19399 27.8333 2.66675ZM30.8536 616.02C31.0488 615.825 31.0488 615.509 30.8536 615.313L27.6716 612.131C27.4763 611.936 27.1597 611.936 26.9645 612.131C26.7692 612.327 26.7692 612.643 26.9645 612.838L29.7929 615.667L26.9645 618.495C26.7692 618.69 26.7692 619.007 26.9645 619.202C27.1597 619.398 27.4763 619.398 27.6716 619.202L30.8536 616.02ZM15.5 2.66675V3.16675H30.5V2.66675V2.16675H15.5V2.66675ZM30.5 615.667V615.167H15.5V615.667V616.167H30.5V615.667ZM0.5 600.667H1V17.6667H0.5H0V600.667H0.5ZM15.5 615.667V615.167C7.49187 615.167 1 608.675 1 600.667H0.5H0C0 609.227 6.93959 616.167 15.5 616.167V615.667ZM15.5 2.66675V2.16675C6.93959 2.16675 0 9.10632 0 17.6667H0.5H1C1 9.6586 7.49187 3.16675 15.5 3.16675V2.66675Z" fill="#87AFCE"/>
</svg>
